<?xml version="1.0" encoding="utf-8"?>
<!-- Generator: Adobe Illustrator 22.1.0, SVG Export Plug-In . SVG Version: 6.00 Build 0)  -->
<svg version="1.1" xmlns="http://www.w3.org/2000/svg" xmlns:xlink="http://www.w3.org/1999/xlink" x="0px" y="0px"
	 viewBox="0 0 566.9 566.9" style="enable-background:new 0 0 566.9 566.9;" xml:space="preserve">
<style type="text/css">
	.st0{display:none;}
	.st1{display:inline;fill:#595959;}
	.st2{fill:#186739;}
	.st3{fill:#12D517;}
	.st4{fill:#19AB22;}
	.st5{fill:#FFFFFF;}
	.st6{fill:#EEF6FC;}
</style>
<g id="Background" class="st0">
	<rect class="st1" width="566.9" height="566.9"/>
</g>
<g id="Yoğurt_İcon">
	<g id="kap">
		<rect x="103.6" y="266.5" class="st2" width="344.9" height="26.5"/>
		<polygon class="st3" points="103.6,293 103.6,372.6 130.1,372.6 130.1,425.7 156.6,425.7 156.6,452.2 183.1,452.2 183.1,478.8 
			395.4,478.8 395.4,425.7 421.9,425.7 421.9,399.2 448.5,399.2 448.5,293 421.9,293 421.9,372.6 395.4,372.6 395.4,399.2 
			368.9,399.2 368.9,452.2 209.7,452.2 209.7,425.7 183.1,425.7 183.1,399.2 156.6,399.2 156.6,346.1 130.1,346.1 130.1,293 		"/>
		<polygon class="st4" points="130.1,293 130.1,346.1 156.6,346.1 156.6,399.2 183.1,399.2 183.1,425.7 209.7,425.7 209.7,452.2 
			368.9,452.2 368.9,399.2 395.4,399.2 395.4,372.6 421.9,372.6 421.9,293 		"/>
		<polygon class="st3" points="183.1,346.1 289.3,346.1 289.3,319.6 262.7,319.6 262.7,293 156.6,293 156.6,319.6 183.1,319.6 		"/>
	</g>
	<g id="yogurt">
		<rect x="130.1" y="240" class="st5" width="79.6" height="26.5"/>
		<polygon class="st6" points="368.9,266.5 421.9,266.5 421.9,133.8 368.9,133.8 368.9,107.3 342.3,107.3 342.3,80.8 315.8,80.8 
			315.8,133.8 236.2,133.8 236.2,186.9 209.7,186.9 209.7,213.4 156.6,213.4 156.6,240 209.7,240 209.7,266.5 236.2,266.5 
			236.2,213.4 262.7,213.4 262.7,160.4 395.4,160.4 395.4,240 368.9,240 		"/>
		<polygon class="st5" points="236.2,266.5 236.2,213.4 262.7,213.4 262.7,160.4 395.4,160.4 395.4,240 368.9,240 368.9,266.5 		"/>
	</g>
</g>
</svg>