<svg width="500" height="500" xmlns="http://www.w3.org/2000/svg">
 <metadata>image/svg+xml</metadata>

 <g>
  <title>background</title>
  <rect fill="none" id="canvas_background" height="402" width="582" y="-1" x="-1"/>
 </g>
 <g>
  <title>Layer 1</title>
  <g id="svg_1" display="none">
   <rect id="svg_2" x="0" fill="#19ab22" height="500" width="500" y="0"/>
  </g>
  <g id="svg_3">
   <g id="svg_4" transform="matrix(4.7482,0,0,4.7482,-220.21,-650.29) ">
    <path id="svg_5" fill="#12d517" d="m74.226394,242.262447l56.171,0l0,-14.049l7.0115,0l0,-7.0115l7.0379,0l0,-28.099l-91.255,0l0,21.061l7.0115,0l0,14.049l7.0115,0l0,7.0115l7.0115,0l0.0001,7.038z"/>
    <path id="svg_6" fill="#19ab22" d="m81.264394,235.222447l42.122,0l0,-14.023l7.0115,0l0,-7.0379l7.0115,0l0,-21.061l-42.122,0l0,7.0379l7.0379,0l0,7.0114l-28.099,0l0,-7.0114l-7.0115,0l0,-7.0379l-7.0115,0l0,14.049l7.0115,0l0,14.049l7.0115,0l0,7.0115l7.0379,0l0.0002,7.0124z"/>
    <path id="svg_7" fill="#186739" d="m53.191394,193.102447l91.255,0l0,-7.0115l-91.255,0l0,7.0115z"/>
    <path id="svg_8" fill="#fff" d="m60.203394,186.092447l77.205,0l0,-35.11l-14.023,0l0,-7.0115l-7.0379,0l0,-7.0115l-7.0115,0l0,14.023l-21.061,0l0,14.049l-7.0115,0l0,7.0115l-14.049,0l0,7.0379l-7.0115,0l0.0004,7.0116z"/>
    <path id="svg_9" fill="#e5ecf2" d="m67.214394,179.078447l0,-7.0379l14.049,0l0,-7.0115l7.0115,0l0,-14.049l21.061,0l0,-14.023l7.0115,0l0,7.0115l7.0379,0l0,7.0115l14.023,0l0,35.11l-14.023,0l0,-7.0115l7.0115,0l0,-21.061l-35.11,0l0,14.023l-7.0115,0l0,14.049l-7.0115,0l0,-7.0115l-14.0494,0.0004z"/>
   </g>
  </g>
 </g>
</svg>
